<svg xmlns="http://www.w3.org/2000/svg" width="900" height="324">
<style>text{font-family:Arial,sans-serif;font-size:12px}</style>
<text x="450.0" y="20" text-anchor="middle" font-size="16" font-weight="bold">Ratings (1-5) Averages by Condition</text>
<line x1="160.0" y1="30" x2="160.0" y2="294" stroke="#ddd"/>
<text x="160.0" y="314" text-anchor="middle">0.0</text>
<line x1="300.0" y1="30" x2="300.0" y2="294" stroke="#ddd"/>
<text x="300.0" y="314" text-anchor="middle">1.0</text>
<line x1="440.0" y1="30" x2="440.0" y2="294" stroke="#ddd"/>
<text x="440.0" y="314" text-anchor="middle">2.0</text>
<line x1="580.0" y1="30" x2="580.0" y2="294" stroke="#ddd"/>
<text x="580.0" y="314" text-anchor="middle">3.0</text>
<line x1="720.0" y1="30" x2="720.0" y2="294" stroke="#ddd"/>
<text x="720.0" y="314" text-anchor="middle">4.0</text>
<line x1="860.0" y1="30" x2="860.0" y2="294" stroke="#ddd"/>
<text x="860.0" y="314" text-anchor="middle">5.0</text>
<text x="450.0" y="292" text-anchor="middle">Average Rating (1–5)</text>
<rect x="160" y="30" width="12" height="12" fill="#4E79A7"/><text x="178" y="41">Baseline</text>
<rect x="260" y="30" width="12" height="12" fill="#E15759"/><text x="278" y="41">Experimental</text>
<text x="152" y="64" text-anchor="end">[Frustration Level: How insecure, discouraged, irritated, and stressed versus secure, gratified, content, and relaxed did you feel during the task?]</text>
<rect x="160" y="54" width="420.0" height="10" fill="#4E79A7"/>
<rect x="160" y="66" width="326.6666666666667" height="10" fill="#E15759"/>
<text x="584.0" y="63" fill="#333">3.00</text>
<text x="490.6666666666667" y="75" fill="#333">2.33</text>
<text x="152" y="102" text-anchor="end">[Mental Demand: How much mental and perceptual activity was required (e.g., thinking, deciding, calculating)?]</text>
<rect x="160" y="92" width="513.3333333333333" height="10" fill="#4E79A7"/>
<rect x="160" y="104" width="198.33333333333331" height="10" fill="#E15759"/>
<text x="677.3333333333333" y="101" fill="#333">3.67</text>
<text x="362.3333333333333" y="113" fill="#333">1.42</text>
<text x="152" y="140" text-anchor="end">[Temporal Demand (Pace): How much time pressure did you feel due to the rate or pace at which the task needed to be performed?]</text>
<rect x="160" y="130" width="478.33333333333337" height="10" fill="#4E79A7"/>
<rect x="160" y="142" width="186.66666666666666" height="10" fill="#E15759"/>
<text x="642.3333333333334" y="139" fill="#333">3.42</text>
<text x="350.66666666666663" y="151" fill="#333">1.33</text>
<text x="152" y="178" text-anchor="end">Agreement [I am confident that my designed question aligns well with the assignments topic.]</text>
<rect x="160" y="168" width="489.99999999999994" height="10" fill="#4E79A7"/>
<rect x="160" y="180" width="560.0" height="10" fill="#E15759"/>
<text x="654.0" y="177" fill="#333">3.50</text>
<text x="724.0" y="189" fill="#333">4.00</text>
<text x="152" y="216" text-anchor="end">Agreement [I am happy with the level of innovation and creativity of my designed question.]</text>
<rect x="160" y="206" width="396.66666666666663" height="10" fill="#4E79A7"/>
<rect x="160" y="218" width="501.6666666666667" height="10" fill="#E15759"/>
<text x="560.6666666666666" y="215" fill="#333">2.83</text>
<text x="665.6666666666667" y="227" fill="#333">3.58</text>
<text x="152" y="254" text-anchor="end">Agreement [I feel like my designed question doesn't have high pedagogical quality (i.e., it is clear, fair, and effectively tests the intended concepts).]</text>
<rect x="160" y="244" width="396.66666666666663" height="10" fill="#4E79A7"/>
<rect x="160" y="256" width="361.6666666666667" height="10" fill="#E15759"/>
<text x="560.6666666666666" y="253" fill="#333">2.83</text>
<text x="525.6666666666667" y="265" fill="#333">2.58</text>
<text x="152" y="292" text-anchor="end">Agreement [It was easy to come up with an idea for the new question.]</text>
<rect x="160" y="282" width="268.33333333333337" height="10" fill="#4E79A7"/>
<rect x="160" y="294" width="525.0" height="10" fill="#E15759"/>
<text x="432.33333333333337" y="291" fill="#333">1.92</text>
<text x="689.0" y="303" fill="#333">3.75</text>
<text x="152" y="330" text-anchor="end">Agreement [It was hard to write and format the new question.]</text>
<rect x="160" y="320" width="443.3333333333333" height="10" fill="#4E79A7"/>
<rect x="160" y="332" width="280.0" height="10" fill="#E15759"/>
<text x="607.3333333333333" y="329" fill="#333">3.17</text>
<text x="444.0" y="341" fill="#333">2.00</text>
</svg>
