<svg xmlns="http://www.w3.org/2000/svg" width="900" height="184">
<style>text{font-family:Arial,sans-serif;font-size:12px}</style>
<text x="450.0" y="20" text-anchor="middle" font-size="16" font-weight="bold">Task Completion by Condition</text>
<line x1="160.0" y1="30" x2="160.0" y2="154" stroke="#ddd"/>
<text x="160.0" y="174" text-anchor="middle">0.0</text>
<line x1="300.0" y1="30" x2="300.0" y2="154" stroke="#ddd"/>
<text x="300.0" y="174" text-anchor="middle">20.0</text>
<line x1="440.0" y1="30" x2="440.0" y2="154" stroke="#ddd"/>
<text x="440.0" y="174" text-anchor="middle">40.0</text>
<line x1="580.0" y1="30" x2="580.0" y2="154" stroke="#ddd"/>
<text x="580.0" y="174" text-anchor="middle">60.0</text>
<line x1="720.0" y1="30" x2="720.0" y2="154" stroke="#ddd"/>
<text x="720.0" y="174" text-anchor="middle">80.0</text>
<line x1="860.0" y1="30" x2="860.0" y2="154" stroke="#ddd"/>
<text x="860.0" y="174" text-anchor="middle">100.0</text>
<text x="450.0" y="152" text-anchor="middle">Percent</text>
<rect x="160" y="30" width="12" height="12" fill="#4E79A7"/><text x="178" y="41">Baseline</text>
<rect x="260" y="30" width="12" height="12" fill="#E15759"/><text x="278" y="41">Experimental</text>
<text x="152" y="64" text-anchor="end">Partially</text>
<rect x="160" y="54" width="58.1" height="10" fill="#4E79A7"/>
<rect x="160" y="66" width="0.0" height="10" fill="#E15759"/>
<text x="222.1" y="63" fill="#333">8.30</text>
<text x="164.0" y="75" fill="#333">0.00</text>
<text x="152" y="102" text-anchor="end">Yes, Completely</text>
<rect x="160" y="92" width="583.1" height="10" fill="#4E79A7"/>
<rect x="160" y="104" width="641.9" height="10" fill="#E15759"/>
<text x="747.1" y="101" fill="#333">83.30</text>
<text x="805.9" y="113" fill="#333">91.70</text>
<text x="152" y="140" text-anchor="end">Yes, Mostly (minor elements incomplete)</text>
<rect x="160" y="130" width="58.1" height="10" fill="#4E79A7"/>
<rect x="160" y="142" width="58.1" height="10" fill="#E15759"/>
<text x="222.1" y="139" fill="#333">8.30</text>
<text x="222.1" y="151" fill="#333">8.30</text>
</svg>
