<svg xmlns="http://www.w3.org/2000/svg" width="900" height="156">
<style>text{font-family:Arial,sans-serif;font-size:12px}</style>
<text x="450.0" y="20" text-anchor="middle" font-size="16" font-weight="bold">Time and Satisfaction by Condition</text>
<line x1="160.0" y1="30" x2="160.0" y2="126" stroke="#ddd"/>
<text x="160.0" y="146" text-anchor="middle">0.0</text>
<line x1="300.0" y1="30" x2="300.0" y2="126" stroke="#ddd"/>
<text x="300.0" y="146" text-anchor="middle">4.9</text>
<line x1="440.0" y1="30" x2="440.0" y2="126" stroke="#ddd"/>
<text x="440.0" y="146" text-anchor="middle">9.7</text>
<line x1="580.0" y1="30" x2="580.0" y2="126" stroke="#ddd"/>
<text x="580.0" y="146" text-anchor="middle">14.6</text>
<line x1="720.0" y1="30" x2="720.0" y2="126" stroke="#ddd"/>
<text x="720.0" y="146" text-anchor="middle">19.5</text>
<line x1="860.0" y1="30" x2="860.0" y2="126" stroke="#ddd"/>
<text x="860.0" y="146" text-anchor="middle">24.3</text>
<text x="450.0" y="124" text-anchor="middle">Value</text>
<rect x="160" y="30" width="12" height="12" fill="#4E79A7"/><text x="178" y="41">Baseline</text>
<rect x="260" y="30" width="12" height="12" fill="#E15759"/><text x="278" y="41">Experimental</text>
<text x="152" y="64" text-anchor="end">Time (minutes)</text>
<rect x="160" y="54" width="700.0" height="10" fill="#4E79A7"/>
<rect x="160" y="66" width="314.041095890411" height="10" fill="#E15759"/>
<text x="864.0" y="63" fill="#333">24.33</text>
<text x="478.041095890411" y="75" fill="#333">10.92</text>
<text x="152" y="102" text-anchor="end">Satisfaction (1–5)</text>
<rect x="160" y="92" width="103.08219178082192" height="10" fill="#4E79A7"/>
<rect x="160" y="104" width="122.26027397260275" height="10" fill="#E15759"/>
<text x="267.0821917808219" y="101" fill="#333">3.58</text>
<text x="286.26027397260276" y="113" fill="#333">4.25</text>
</svg>
