<svg xmlns="http://www.w3.org/2000/svg" width="900" height="500">
<style>text{font-family:Arial,sans-serif}</style>
<text x="450.0" y="30" text-anchor="middle" font-size="18" font-weight="bold">Top terms - Experimental System</text>
<text x="60" y="70" font-size="30">question (7)</text>
<text x="360" y="70" font-size="27">brainstorming (6)</text>
<text x="660" y="70" font-size="27">ideas (6)</text>
<text x="60" y="110" font-size="24">better (5)</text>
<text x="360" y="107" font-size="24">some (5)</text>
<text x="660" y="107" font-size="24">could (5)</text>
<text x="60" y="144" font-size="24">but (5)</text>
<text x="360" y="141" font-size="21">pdf (4)</text>
<text x="660" y="141" font-size="21">generation (4)</text>
<text x="60" y="178" font-size="21">idea (4)</text>
<text x="360" y="172" font-size="21">more (4)</text>
<text x="660" y="172" font-size="21">design (4)</text>
<text x="60" y="209" font-size="18">latex (3)</text>
<text x="360" y="203" font-size="18">module (3)</text>
<text x="660" y="203" font-size="18">would (3)</text>
<text x="60" y="237" font-size="18">generated (3)</text>
<text x="360" y="231" font-size="18">system (3)</text>
<text x="660" y="231" font-size="18">me (3)</text>
<text x="60" y="265" font-size="18">also (3)</text>
<text x="360" y="259" font-size="18">not (3)</text>
<text x="660" y="259" font-size="18">formatting (3)</text>
<text x="60" y="293" font-size="15">brain (2)</text>
<text x="360" y="287" font-size="15">storm (2)</text>
<text x="660" y="287" font-size="15">get (2)</text>
<text x="60" y="318" font-size="15">way (2)</text>
<text x="360" y="312" font-size="15">added (2)</text>
<text x="660" y="312" font-size="15">problem (2)</text>
<text x="60" y="343" font-size="15">like (2)</text>
<text x="360" y="337" font-size="15">my (2)</text>
<text x="660" y="337" font-size="15">format (2)</text>
<text x="60" y="368" font-size="15">difficulty (2)</text>
<text x="360" y="362" font-size="15">liked (2)</text>
<text x="660" y="362" font-size="15">most (2)</text>
<text x="60" y="393" font-size="15">think (2)</text>
<text x="360" y="387" font-size="15">can (2)</text>
<text x="660" y="387" font-size="15">different (2)</text>
<text x="60" y="418" font-size="15">all (2)</text>
<text x="360" y="412" font-size="15">making (2)</text>
<text x="660" y="412" font-size="15">feature (2)</text>
<text x="60" y="443" font-size="15">ai (2)</text>
<text x="360" y="437" font-size="15">every (2)</text>
<text x="660" y="437" font-size="15">big (2)</text>
<text x="60" y="468" font-size="15">one (2)</text>
<text x="360" y="462" font-size="15">times (2)</text>
<text x="660" y="462" font-size="15">diverse (2)</text>
<text x="60" y="493" font-size="15">however (2)</text>
<text x="360" y="487" font-size="15">function (2)</text>
<text x="660" y="487" font-size="15">did (2)</text>
<text x="60" y="518" font-size="15">generating (2)</text>
<text x="360" y="512" font-size="12">queries (1)</text>
<text x="660" y="512" font-size="12">great (1)</text>
<text x="60" y="543" font-size="12">active (1)</text>
<text x="360" y="534" font-size="12">allow (1)</text>
<text x="660" y="534" font-size="12">us (1)</text>
<text x="60" y="565" font-size="12">feedback (1)</text>
<text x="360" y="556" font-size="12">compiling (1)</text>
<text x="660" y="556" font-size="12">error (1)</text>
<text x="60" y="587" font-size="12">convenient (1)</text>
<text x="360" y="578" font-size="12">part (1)</text>
<text x="660" y="578" font-size="12">developing (1)</text>
</svg>
