<svg xmlns="http://www.w3.org/2000/svg" width="900" height="500">
<style>text{font-family:Arial,sans-serif}</style>
<text x="450.0" y="30" text-anchor="middle" font-size="18" font-weight="bold">Top terms - Baseline</text>
<text x="60" y="70" font-size="30">idea (5)</text>
<text x="360" y="70" font-size="26">not (4)</text>
<text x="660" y="70" font-size="26">question (4)</text>
<text x="60" y="110" font-size="22">llms (3)</text>
<text x="360" y="106" font-size="22">new (3)</text>
<text x="660" y="106" font-size="22">out (3)</text>
<text x="60" y="142" font-size="22">use (3)</text>
<text x="360" y="138" font-size="22">find (3)</text>
<text x="660" y="138" font-size="22">coming (3)</text>
<text x="60" y="174" font-size="22">up (3)</text>
<text x="360" y="170" font-size="22">me (3)</text>
<text x="660" y="170" font-size="18">design (2)</text>
<text x="60" y="206" font-size="18">task (2)</text>
<text x="360" y="202" font-size="18">problems (2)</text>
<text x="660" y="198" font-size="18">creating (2)</text>
<text x="60" y="234" font-size="18">questions (2)</text>
<text x="360" y="230" font-size="18">good (2)</text>
<text x="660" y="226" font-size="18">similar (2)</text>
<text x="60" y="262" font-size="18">well (2)</text>
<text x="360" y="258" font-size="18">innovative (2)</text>
<text x="660" y="254" font-size="18">details (2)</text>
<text x="60" y="290" font-size="18">my (2)</text>
<text x="360" y="286" font-size="18">platform (2)</text>
<text x="660" y="282" font-size="18">process (2)</text>
<text x="60" y="318" font-size="18">formatting (2)</text>
<text x="360" y="314" font-size="18">defined (2)</text>
<text x="660" y="310" font-size="18">while (2)</text>
<text x="60" y="346" font-size="18">references (2)</text>
<text x="360" y="342" font-size="18">challenging (2)</text>
<text x="660" y="338" font-size="18">approach (2)</text>
<text x="60" y="374" font-size="18">most (2)</text>
<text x="360" y="370" font-size="14">gpt (1)</text>
<text x="660" y="366" font-size="14">do (1)</text>
<text x="60" y="402" font-size="14">everything (1)</text>
<text x="360" y="394" font-size="14">explaining (1)</text>
<text x="660" y="390" font-size="14">problem (1)</text>
<text x="60" y="426" font-size="14">goal (1)</text>
<text x="360" y="418" font-size="14">write (1)</text>
<text x="660" y="414" font-size="14">roadmap (1)</text>
<text x="60" y="450" font-size="14">considerable (1)</text>
<text x="360" y="442" font-size="14">innovation (1)</text>
<text x="660" y="438" font-size="14">access (1)</text>
<text x="60" y="474" font-size="14">commonly (1)</text>
<text x="360" y="466" font-size="14">known (1)</text>
<text x="660" y="462" font-size="14">previous (1)</text>
<text x="60" y="498" font-size="14">lack (1)</text>
<text x="360" y="490" font-size="14">diversity (1)</text>
<text x="660" y="486" font-size="14">previously (1)</text>
<text x="60" y="522" font-size="14">available (1)</text>
<text x="360" y="514" font-size="14">ones (1)</text>
<text x="660" y="510" font-size="14">internet (1)</text>
<text x="60" y="546" font-size="14">however (1)</text>
<text x="360" y="538" font-size="14">could (1)</text>
<text x="660" y="534" font-size="14">generalize (1)</text>
<text x="60" y="570" font-size="14">but (1)</text>
<text x="360" y="562" font-size="14">prompt (1)</text>
<text x="660" y="558" font-size="14">engineering (1)</text>
<text x="60" y="594" font-size="14">generated (1)</text>
<text x="360" y="586" font-size="14">very (1)</text>
<text x="660" y="582" font-size="14">appropiate (1)</text>
</svg>
